
<svg viewBox="0 0 19174.996 4096" xmlns="http://www.w3.org/2000/svg">
  <g transform="matrix(31.751938, 0, 0, 31.751938, 0, 0)">
    <path d="M 213.2 74.3 L 209.6 84.5 L 209.3 84.5 C 208.7 82.2 207.6 78.7 205.8 74.5 L 186.5 26 L 167.6 26 L 167.6 103.3 L 180.1 103.3 L 180.1 55.6 C 180.1 52.6 180.1 49.2 180 45 C 179.9 42.9 179.7 41.3 179.6 40.1 L 179.9 40.1 C 180.5 43.1 181.2 45.3 181.7 46.7 L 204.9 103.1 L 213.7 103.1 L 236.7 46.2 C 237.2 44.9 237.7 42.3 238.2 40.1 L 238.5 40.1 C 238.2 45.8 238 50.9 237.9 54 L 237.9 103 L 251.2 103 L 251.2 25.8 L 233 25.8 L 213.2 74.3 Z M 263.8 47.6 L 276.8 47.6 L 276.8 103 L 263.8 103 Z M 270.4 24.2 C 268.2 24.2 266.4 25 264.9 26.4 C 263.4 27.8 262.6 29.6 262.6 31.8 C 262.6 33.9 263.4 35.7 264.9 37.1 C 266.4 38.5 268.2 39.2 270.4 39.2 C 272.6 39.2 274.5 38.4 275.9 37.1 C 277.4 35.7 278.2 33.9 278.2 31.8 C 278.2 29.7 277.4 27.9 275.9 26.4 C 274.6 25 272.7 24.2 270.4 24.2 M 322.9 47.1 C 320.5 46.6 318 46.3 315.6 46.3 C 309.7 46.3 304.3 47.6 299.8 50.2 C 295.3 52.8 291.7 56.4 289.4 60.9 C 287 65.5 285.8 70.8 285.8 76.9 C 285.8 82.2 287 86.9 289.3 91.2 C 291.6 95.4 294.8 98.8 299.1 101.1 C 303.2 103.4 308 104.6 313.4 104.6 C 319.6 104.6 324.9 103.3 329.1 100.9 L 329.2 100.8 L 329.2 88.8 L 328.7 89.2 C 326.8 90.6 324.6 91.8 322.4 92.5 C 320.1 93.3 318 93.7 316.2 93.7 C 311 93.7 306.9 92.2 304 88.9 C 301 85.7 299.5 81.3 299.5 75.8 C 299.5 70.1 301 65.6 304.1 62.3 C 307.2 59 311.3 57.3 316.3 57.3 C 320.5 57.3 324.8 58.7 328.7 61.5 L 329.2 61.9 L 329.2 49.2 L 329.1 49.1 C 327.4 48.4 325.5 47.6 322.9 47.1 M 365.8 46.7 C 362.6 46.7 359.6 47.7 357 49.8 C 354.8 51.6 353.3 54.2 352 57.3 L 351.9 57.3 L 351.9 47.6 L 338.9 47.6 L 338.9 103 L 351.9 103 L 351.9 74.7 C 351.9 69.9 352.9 65.9 355.1 63 C 357.3 60 360.1 58.5 363.5 58.5 C 364.7 58.5 365.9 58.8 367.4 59 C 368.8 59.4 369.8 59.8 370.5 60.3 L 371 60.7 L 371 47.7 L 370.7 47.6 C 369.8 47 368 46.7 365.8 46.7 M 401.2 46.4 C 392.1 46.4 384.8 49.1 379.7 54.4 C 374.5 59.7 372 67 372 76.2 C 372 84.8 374.6 91.8 379.6 96.9 C 384.6 101.9 391.4 104.5 399.9 104.5 C 408.8 104.5 415.9 101.8 421 96.4 C 426.2 91 428.7 83.8 428.7 74.9 C 428.7 66.1 426.3 59.1 421.4 54 C 416.7 48.9 409.8 46.4 401.2 46.4 M 411.6 89 C 409.2 92.1 405.4 93.6 400.7 93.6 C 396 93.6 392.2 92.1 389.5 88.8 C 386.8 85.7 385.5 81.2 385.5 75.5 C 385.5 69.6 386.9 65.1 389.5 61.9 C 392.2 58.7 395.9 57.1 400.6 57.1 C 405.2 57.1 408.8 58.6 411.4 61.7 C 414 64.8 415.4 69.3 415.4 75.2 C 415.2 81.2 414.1 85.9 411.6 89 M 457.7 70.6 C 453.6 68.9 451 67.6 449.8 66.5 C 448.8 65.5 448.3 64.1 448.3 62.3 C 448.3 60.8 448.9 59.3 450.4 58.3 C 451.9 57.3 453.6 56.8 456.1 56.8 C 458.3 56.8 460.6 57.2 462.8 57.8 C 465 58.4 467 59.3 468.6 60.5 L 469.1 60.9 L 469.1 48.7 L 468.8 48.6 C 467.3 48 465.3 47.4 462.9 46.9 C 460.5 46.5 458.3 46.3 456.5 46.3 C 450.3 46.3 445.2 47.8 441.2 51.1 C 437.2 54.2 435.3 58.4 435.3 63.3 C 435.3 65.9 435.7 68.2 436.6 70.1 C 437.5 72 438.8 73.8 440.6 75.3 C 442.4 76.7 445 78.3 448.6 79.8 C 451.6 81.1 453.9 82.1 455.3 82.9 C 456.7 83.7 457.6 84.6 458.3 85.3 C 458.8 86.1 459.1 87.1 459.1 88.4 C 459.1 92.1 456.3 93.9 450.6 93.9 C 448.4 93.9 446.1 93.5 443.4 92.6 C 440.7 91.7 438.2 90.4 436.1 88.9 L 435.6 88.5 L 435.6 101.2 L 435.9 101.3 C 437.8 102.2 440.1 102.8 442.9 103.5 C 445.7 104 448.2 104.4 450.4 104.4 C 457.1 104.4 462.6 102.9 466.5 99.6 C 470.5 96.4 472.6 92.3 472.6 87 C 472.6 83.3 471.6 80 469.4 77.5 C 466.5 75.1 462.9 72.6 457.7 70.6 M 506.9 46.4 C 497.8 46.4 490.5 49.1 485.4 54.4 C 480.3 59.7 477.7 67 477.7 76.2 C 477.7 84.8 480.3 91.8 485.3 96.9 C 490.3 101.9 497.1 104.5 505.6 104.5 C 514.5 104.5 521.6 101.8 526.7 96.4 C 531.9 91 534.4 83.8 534.4 74.9 C 534.4 66.1 532 59.1 527.1 54 C 522.4 48.9 515.5 46.4 506.9 46.4 M 517.2 89 C 514.8 92.1 511 93.6 506.3 93.6 C 501.5 93.6 497.8 92.1 495.1 88.8 C 492.4 85.7 491.1 81.2 491.1 75.5 C 491.1 69.6 492.5 65.1 495.1 61.9 C 497.8 58.7 501.5 57.1 506.2 57.1 C 510.7 57.1 514.4 58.6 517 61.7 C 519.6 64.8 521 69.3 521 75.2 C 521 81.2 519.7 85.9 517.2 89 M 603.9 58.3 L 603.9 47.6 L 590.8 47.6 L 590.8 31.2 L 590.4 31.3 L 578 35 L 577.7 35.1 L 577.7 47.6 L 558.1 47.6 L 558.1 40.6 C 558.1 37.4 558.9 34.9 560.3 33.3 C 561.7 31.7 563.8 30.9 566.4 30.9 C 568.2 30.9 570.1 31.3 572.2 32.2 L 572.7 32.5 L 572.7 21.2 L 572.4 21.1 C 570.6 20.5 568.2 20.1 565.1 20.1 C 561.2 20.1 557.8 21 554.7 22.5 C 551.6 24.2 549.3 26.5 547.6 29.6 C 545.9 32.6 545 36 545 39.9 L 545 47.6 L 535.9 47.6 L 535.9 58.2 L 545 58.2 L 545 103 L 558.1 103 L 558.1 58.3 L 577.7 58.3 L 577.7 86.8 C 577.7 98.5 583.2 104.4 594.2 104.4 C 596 104.4 597.9 104.1 599.7 103.8 C 601.6 103.4 603 102.9 603.8 102.5 L 603.9 102.4 L 603.9 91.7 L 603.4 92.1 C 602.6 92.6 601.9 93 600.7 93.3 C 599.7 93.6 598.8 93.7 598.1 93.7 C 595.5 93.7 593.7 93.1 592.4 91.6 C 591.2 90.2 590.6 87.9 590.6 84.5 L 590.6 58.3 L 603.9 58.3 Z" fill="#737373"></path>
    <path fill="#F25022" d="M 0 0 L 61.3 0 L 61.3 61.3 L 0 61.3 Z"></path>
    <path fill="#7FBA00" d="M 67.7 0 L 129 0 L 129 61.3 L 67.7 61.3 Z"></path>
    <path fill="#00A4EF" d="M 0 67.7 L 61.3 67.7 L 61.3 129 L 0 129 Z"></path>
    <path fill="#FFB900" d="M 67.7 67.7 L 129 67.7 L 129 129 L 67.7 129 Z"></path>
  </g>
</svg>